# xmcd
#
# Track frame offsets:
#	150
#	29870
#	48335
#	75095
#	102247
#	138542
#	163310
#	184475
#	205467
#	232965
#	257760
#	282797
#	288692
#
# Disc length: 4067 seconds
#
# Revision: 1
# Processed by: cddbd v1.5.1PL0 Copyright (c) Steve Scherf et al.
# Submitted via: audiograbber 1.83.01
#
DISCID=c40fe10d
DTITLE=THE SAINTS - Grown Folk Music
DYEAR=1900
DGENRE=
TTITLE0=Another Day
TTITLE1=Kryptonite
TTITLE2=All Your Love
TTITLE3=Lift
TTITLE4=Force Of Nature
TTITLE5=Sole
TTITLE6=Words Of Life
TTITLE7=All You'll Be
TTITLE8=Original
TTITLE9=Sunday After Hours
TTITLE10=California Remix
TTITLE11=Postlude
TTITLE12=Small Screen
EXTD=
EXTT0=
EXTT1=
EXTT2=
EXTT3=
EXTT4=
EXTT5=
EXTT6=
EXTT7=
EXTT8=
EXTT9=
EXTT10=
EXTT11=
EXTT12=
PLAYORDER=
